<svg width="94" height="91" viewBox="0 0 94 91" fill="none" xmlns="http://www.w3.org/2000/svg">
<path d="M55.5383 1H38.4655V13.0482C35.2254 13.8526 32.1789 15.0995 29.3865 16.7267L20.5105 8.17042L8.43808 19.8036L17.4317 28.4714C15.8344 31.137 14.626 34.0366 13.8521 37.1081H1V53.5624H14.0968C14.9334 56.515 16.1854 59.2958 17.7902 61.8535L8.43618 70.8686L20.5086 82.5036L29.9765 73.377C32.6057 74.8396 35.453 75.9585 38.4636 76.7081V89.6704H55.5364V76.7081C58.547 75.9603 61.3943 74.8396 64.0235 73.377L73.4914 82.5036L85.5638 70.8705L76.2098 61.8553C77.8165 59.2958 79.0666 56.515 79.9032 53.5624H93V37.1081H80.1479C79.3758 34.0366 78.1656 31.137 76.5683 28.4714L85.5619 19.8036L73.4914 8.16859L64.6116 16.7267C61.8193 15.0995 58.7746 13.8545 55.5345 13.0482V1H55.5383Z" stroke="white" stroke-width="2" stroke-linejoin="round"/>
<path d="M47.1946 60.3893C55.5864 60.3893 62.3893 53.5864 62.3893 45.1946C62.3893 36.8029 55.5864 30 47.1946 30C38.8029 30 32 36.8029 32 45.1946C32 53.5864 38.8029 60.3893 47.1946 60.3893Z" stroke="#6ECCC3" stroke-width="2"/>
</svg>