<svg width="45" height="43" viewBox="0 0 45 43" fill="none" xmlns="http://www.w3.org/2000/svg">
<g clip-path="url(#clip0)">
<path d="M29.0378 11.4402H16.1062C14.0421 11.4402 12.3628 13.1045 12.3628 15.1501V27.966C12.3628 30.0117 14.0421 31.6764 16.1062 31.6764H29.0378C31.1019 31.6764 32.7817 30.0121 32.7817 27.966V15.1501C32.7817 13.1045 31.1024 11.4402 29.0378 11.4402ZM22.572 28.2199C18.8659 28.2199 15.8505 25.2315 15.8505 21.5581C15.8505 17.8851 18.8659 14.8966 22.572 14.8966C26.2787 14.8966 29.294 17.8851 29.294 21.5581C29.294 25.2311 26.2782 28.2199 22.572 28.2199ZM29.5101 16.274C28.6328 16.274 27.9193 15.5669 27.9193 14.6978C27.9193 13.8288 28.6328 13.1217 29.5101 13.1217C30.387 13.1217 31.1005 13.8288 31.1005 14.6978C31.1005 15.5669 30.387 16.274 29.5101 16.274Z" fill="#87D9F1"/>
<path d="M22.5721 17.7117C20.4326 17.7117 18.6904 19.4373 18.6904 21.5576C18.6904 23.6789 20.4326 25.405 22.5721 25.405C24.7125 25.405 26.4532 23.6789 26.4532 21.5576C26.4532 19.4377 24.712 17.7117 22.5721 17.7117Z" fill="#87D9F1"/>
<path d="M22.572 0C10.5912 0 0.87793 9.62635 0.87793 21.5C0.87793 33.3736 10.5912 43 22.572 43C34.5529 43 44.2661 33.3736 44.2661 21.5C44.2661 9.62635 34.5529 0 22.572 0ZM35.6216 27.966C35.6216 31.5642 32.6686 34.4908 29.0379 34.4908H16.1062C12.4759 34.4908 9.52241 31.5642 9.52241 27.966V15.15C9.52241 11.5522 12.4759 8.6251 16.1062 8.6251H29.0379C32.6686 8.6251 35.6216 11.5522 35.6216 15.15V27.966Z" fill="#87D9F1"/>
</g>
<defs>
<clipPath id="clip0">
<rect width="43.3882" height="43" fill="white" transform="translate(0.87793)"/>
</clipPath>
</defs>
</svg>

