<svg width="33" height="36" viewBox="0 0 33 36" fill="none" xmlns="http://www.w3.org/2000/svg">
<path d="M23.0054 14.9698C23.6383 13.9337 24 9.34824 24 8.06777C24 4.16401 20.6428 1 16.5014 1C12.3572 1 9 4.16401 9 8.06777C9 9.38582 9.38259 14.0037 10.0508 15.0595C11.3581 17.1301 13.7579 19 16.5014 19C19.282 19.0009 21.709 17.09 23.0054 14.9698Z" stroke="#87D9F1" stroke-width="2"/>
<path d="M21.6953 21.3713C18.6087 22.8505 17.1599 23.2123 16.5014 23.2746C15.842 23.2123 14.3931 22.8505 11.3047 21.3713C6.36554 19.0049 1 28.4713 1 35C3.13989 35 13.6461 35 16.4146 35C16.4734 35 16.533 35 16.5845 35C19.3539 35 29.8601 35 32 35C32 28.4713 26.6345 19.0049 21.6953 21.3713Z" stroke="#87D9F1" stroke-width="2"/>
</svg>
