<svg width="102" height="84" viewBox="0 0 102 84" fill="none" xmlns="http://www.w3.org/2000/svg">
<path d="M84.6152 49.5701C85.6148 47.8496 86.188 40.233 86.188 38.1056C86.188 31.6204 80.886 26.3659 74.356 26.3659C67.8199 26.3659 62.522 31.6204 62.522 38.1056C62.522 40.2957 63.1258 47.965 64.1784 49.7199C66.245 53.1588 70.0271 56.2658 74.354 56.2658C78.742 56.2679 82.5711 53.092 84.6152 49.5701Z" stroke="#6ECCC3" stroke-width="2"/>
<path d="M49.7129 81.7229C53.1034 81.7229 69.7335 81.7229 74.1174 81.7229C74.2092 81.7229 74.3071 81.7229 74.3847 81.7229C78.7686 81.7229 95.4048 81.7229 98.7933 81.7229C98.7933 71.0175 90.2966 55.5007 82.4773 59.3789C77.5895 61.8058 75.2945 62.3948 74.2541 62.5021C73.2749 62.3989 71.188 61.8766 66.8917 59.7979" stroke="#6ECCC3" stroke-width="2"/>
<path d="M53.1116 35.8609C54.5355 33.4057 55.3495 22.5403 55.3495 19.5062C55.3495 10.2561 47.7953 2.75885 38.4766 2.75885C29.1518 2.75885 21.5977 10.2561 21.5977 19.5062C21.5977 22.6294 22.4585 33.5717 23.962 36.0734C26.9037 40.9799 32.3036 45.4106 38.4766 45.4106C44.7333 45.4126 50.1944 40.8847 53.1116 35.8609Z" stroke="white" stroke-width="2"/>
<path d="M50.0617 49.8515C43.091 53.3107 39.8188 54.1567 38.3317 54.3025C36.8425 54.1567 33.5703 53.3107 26.5956 49.8515C15.4408 44.3176 3.32324 66.4551 3.32324 81.7229C8.156 81.7229 31.8832 81.7229 38.1358 81.7229C38.2684 81.7229 38.4031 81.7229 38.5194 81.7229C44.774 81.7229 68.5012 81.7229 73.334 81.7229C73.334 66.4551 61.2164 44.3176 50.0617 49.8515Z" stroke="white" stroke-width="2"/>
</svg>