<svg width="44" height="43" viewBox="0 0 44 43" fill="none" xmlns="http://www.w3.org/2000/svg">
<path d="M21.8767 43C33.858 43 43.5708 33.3741 43.5708 21.5C43.5708 9.62588 33.858 0 21.8767 0C9.8954 0 0.182617 9.62588 0.182617 21.5C0.182617 33.3741 9.8954 43 21.8767 43Z" fill="#87D9F1"/>
<path fill-rule="evenodd" clip-rule="evenodd" d="M21.0572 30.9296H22.7599C22.7599 30.9296 23.2743 30.8737 23.5369 30.5931C23.7786 30.3356 23.7708 29.8519 23.7708 29.8519C23.7708 29.8519 23.7376 27.5876 24.7979 27.2542C25.8432 26.9257 27.1855 29.4426 28.6083 30.4103C29.6841 31.1427 30.5016 30.9821 30.5016 30.9821L34.3058 30.9296C34.3058 30.9296 36.2958 30.8081 35.3522 29.2575C35.2749 29.1306 34.8027 28.1104 32.5238 26.014C30.1385 23.8198 30.4579 24.1747 33.3313 20.3793C35.0812 18.0679 35.7807 16.6567 35.5622 16.0523C35.3538 15.4767 34.0668 15.6288 34.0668 15.6288L29.7835 15.6553C29.7835 15.6553 29.466 15.6123 29.2305 15.7518C29.0004 15.8887 28.8523 16.2075 28.8523 16.2075C28.8523 16.2075 28.1744 17.9962 27.2702 19.5174C25.3629 22.7271 24.6003 22.8965 24.2886 22.6972C23.5635 22.2327 23.7445 20.8312 23.7445 19.8355C23.7445 16.7249 24.2206 15.428 22.8176 15.0923C22.352 14.9807 22.0093 14.9071 20.8186 14.8953C19.2903 14.8795 17.9967 14.8999 17.2643 15.2555C16.777 15.492 16.4011 16.019 16.6301 16.0493C16.9132 16.0868 17.5543 16.2206 17.8943 16.6793C18.3332 17.2711 18.3177 18.6002 18.3177 18.6002C18.3177 18.6002 18.5699 22.2619 17.7287 22.7168C17.1514 23.0288 16.3594 22.3918 14.659 19.4798C13.7877 17.9882 13.1299 16.3394 13.1299 16.3394C13.1299 16.3394 13.0031 16.0312 12.7768 15.8664C12.5023 15.6668 12.1186 15.6031 12.1186 15.6031L8.04842 15.6296C8.04842 15.6296 7.43741 15.6464 7.21311 15.9097C7.01356 16.1439 7.19725 16.6284 7.19725 16.6284C7.19725 16.6284 10.3838 24.0168 13.9919 27.7401C17.3003 31.1538 21.0572 30.9296 21.0572 30.9296Z" fill="#262020"/>
</svg>
